<svg width="20" height="20" viewBox="0 0 20 20" fill="none" xmlns="http://www.w3.org/2000/svg">
<g id="PaperPlaneRight">
<path id="Vector" d="M17.4898 8.90513L4.36484 1.41372C4.1436 1.28961 3.88983 1.23576 3.63726 1.2593C3.38468 1.28285 3.14525 1.38269 2.95076 1.54555C2.75628 1.70841 2.61594 1.92659 2.54841 2.17111C2.48087 2.41563 2.48933 2.6749 2.57265 2.9145L4.99452 9.98247C4.99421 9.98506 4.99421 9.98769 4.99452 9.99028C4.99409 9.99287 4.99409 9.99551 4.99452 9.99809L2.57265 17.0817C2.50592 17.2702 2.48538 17.4719 2.51274 17.67C2.5401 17.868 2.61458 18.0566 2.72991 18.2199C2.84525 18.3833 2.99808 18.5165 3.17557 18.6086C3.35307 18.7006 3.55005 18.7487 3.74999 18.7489C3.96692 18.7483 4.18004 18.6918 4.36874 18.5848L17.4867 11.0809C17.6802 10.9725 17.8414 10.8146 17.9537 10.6233C18.066 10.4321 18.1254 10.2144 18.1258 9.9926C18.1262 9.7708 18.0676 9.5529 17.956 9.36125C17.8443 9.16959 17.6837 9.01109 17.4906 8.902L17.4898 8.90513ZM3.74999 17.4989V17.4918L6.10468 10.6239H10.625C10.7908 10.6239 10.9497 10.558 11.0669 10.4408C11.1841 10.3236 11.25 10.1646 11.25 9.99888C11.25 9.83311 11.1841 9.67414 11.0669 9.55693C10.9497 9.43972 10.7908 9.37388 10.625 9.37388H6.11093L3.75468 2.50825L3.74999 2.49887L16.875 9.98559L3.74999 17.4989Z" fill="#1C1C1C" fill-opacity="0.4"/>
</g>
</svg>
