<svg width="32" height="30" viewBox="0 0 32 30" fill="none" xmlns="http://www.w3.org/2000/svg">
<g id="Image icon">
<g id="Image icon_2">
<path d="M16.0968 29.0964C11.4092 29.0964 6.72153 29.0964 2.0339 29.0964C1.80491 29.0964 1.57296 29.0964 1.34299 29.0727C0.169434 28.9631 -0.302357 28.1726 0.198057 27.1036C0.632341 26.1808 1.10611 25.2816 1.56605 24.3686C3.73747 20.0699 5.9089 15.7718 8.08032 11.4743C8.14743 11.3431 8.21751 11.2118 8.29549 11.0864C8.84229 10.21 9.7306 10.0866 10.4304 10.8426C10.9239 11.3717 11.3414 11.9659 11.7816 12.5393C14.0188 15.4628 16.256 18.3877 18.4933 21.3138C19.4704 22.5871 20.7012 22.6562 21.8491 21.5112C22.4186 20.9427 22.9753 20.3594 23.5517 19.7958C24.591 18.7792 25.7705 18.8404 26.6193 20.0258C28.3229 22.4045 29.984 24.8147 31.6531 27.2171C31.7835 27.4056 31.8834 27.6134 31.9492 27.833C32.111 28.3848 31.8821 28.8289 31.3224 28.976C30.9715 29.06 30.6113 29.0988 30.2505 29.0915C25.5353 29.0994 20.8173 29.101 16.0968 29.0964Z" fill="#D4D2E3"/>
<path d="M26.6094 5.54142C26.6082 6.45896 26.3346 7.35548 25.8233 8.11732C25.3119 8.87917 24.5859 9.47203 23.7372 9.82075C22.8885 10.1695 21.9554 10.2583 21.0562 10.0761C20.1569 9.89382 19.332 9.44866 18.6861 8.79703C18.0401 8.14539 17.6022 7.31663 17.4278 6.41581C17.2535 5.515 17.3505 4.58269 17.7066 3.73709C18.0628 2.89148 18.662 2.17067 19.4283 1.66602C20.1946 1.16138 21.0934 0.895632 22.011 0.902473C23.2327 0.917999 24.3995 1.413 25.2597 2.28076C26.1199 3.14853 26.6046 4.31956 26.6094 5.54142Z" fill="#D4D2E3"/>
</g>
</g>
</svg>
