<svg width="32" height="32" viewBox="0 0 32 32" fill="none" xmlns="http://www.w3.org/2000/svg">
<g id="Star">
<g id="Vector">
<path fill-rule="evenodd" clip-rule="evenodd" d="M13.5 6.76499L12.2389 10.173C11.8844 11.131 11.129 11.8863 10.171 12.2408L6.76304 13.5019L10.171 14.763C11.129 15.1175 11.8844 15.8728 12.2389 16.8308L13.5 20.2388L14.761 16.8308C15.1155 15.8728 15.8709 15.1175 16.8289 14.763L20.2369 13.5019L16.8289 12.2408C15.8709 11.8863 15.1155 11.131 14.761 10.173L13.5 6.76499ZM14.9067 4.80366C14.4235 3.49774 12.5764 3.49774 12.0932 4.80366L10.3632 9.47891C10.2113 9.88949 9.88754 10.2132 9.47696 10.3651L4.80171 12.0951C3.49578 12.5784 3.49578 14.4254 4.80171 14.9087L9.47696 16.6387C9.88754 16.7906 10.2113 17.1143 10.3632 17.5249L12.0932 22.2001C12.5764 23.5061 14.4235 23.5061 14.9067 22.2001L16.6367 17.5249C16.7887 17.1143 17.1124 16.7906 17.523 16.6387L22.1982 14.9087C23.5041 14.4254 23.5041 12.5784 22.1982 12.0951L17.523 10.3651C17.1124 10.2132 16.7887 9.88949 16.6367 9.47891L14.9067 4.80366Z" fill="white"/>
<path fill-rule="evenodd" clip-rule="evenodd" d="M23.4998 20.3243L23.0404 21.5656C22.7872 22.2499 22.2477 22.7894 21.5634 23.0426L20.3221 23.502L21.5634 23.9613C22.2477 24.2145 22.7872 24.754 23.0404 25.4383L23.4998 26.6796L23.9591 25.4383C24.2123 24.754 24.7518 24.2145 25.4361 23.9613L26.6774 23.502L25.4361 23.0426C24.7518 22.7894 24.2123 22.2499 23.9591 21.5656L23.4998 20.3243ZM24.4376 18.5365C24.1155 17.6658 22.8841 17.6658 22.5619 18.5365L21.6337 21.045C21.5324 21.3188 21.3166 21.5346 21.0428 21.6358L18.5343 22.5641C17.6636 22.8863 17.6636 24.1176 18.5343 24.4398L21.0428 25.3681C21.3166 25.4693 21.5324 25.6852 21.6337 25.9589L22.5619 28.4674C22.8841 29.3381 24.1155 29.3381 24.4376 28.4674L25.3659 25.9589C25.4672 25.6852 25.683 25.4693 25.9567 25.3681L28.4653 24.4398C29.3359 24.1176 29.3359 22.8863 28.4653 22.5641L25.9567 21.6358C25.683 21.5346 25.4672 21.3188 25.3659 21.045L24.4376 18.5365Z" fill="white"/>
</g>
</g>
</svg>
