<svg width="25" height="25" viewBox="0 0 25 25" fill="none" xmlns="http://www.w3.org/2000/svg">
<g id="ph:sparkle-light">
<path id="Vector" d="M19.2276 12.7871L14.1016 10.8984L12.2129 5.77246C12.1168 5.51166 11.9429 5.28661 11.7149 5.12766C11.4868 4.96871 11.2155 4.88349 10.9376 4.88349C10.6596 4.88349 10.3883 4.96871 10.1602 5.12766C9.93219 5.28661 9.75836 5.51166 9.66217 5.77246L7.77349 10.8984L2.64752 12.7871C2.38671 12.8833 2.16167 13.0571 2.00272 13.2852C1.84376 13.5132 1.75854 13.7845 1.75854 14.0625C1.75854 14.3405 1.84376 14.6118 2.00272 14.8398C2.16167 15.0679 2.38671 15.2417 2.64752 15.3379L7.77349 17.2266L9.66217 22.3525C9.75836 22.6133 9.93219 22.8384 10.1602 22.9973C10.3883 23.1563 10.6596 23.2415 10.9376 23.2415C11.2155 23.2415 11.4868 23.1563 11.7149 22.9973C11.9429 22.8384 12.1168 22.6133 12.2129 22.3525L14.1016 17.2266L19.2276 15.3379C19.4884 15.2417 19.7134 15.0679 19.8724 14.8398C20.0313 14.6118 20.1166 14.3405 20.1166 14.0625C20.1166 13.7845 20.0313 13.5132 19.8724 13.2852C19.7134 13.0571 19.4884 12.8833 19.2276 12.7871ZM18.8223 14.2383L13.4434 16.2207C13.3637 16.25 13.2914 16.2963 13.2314 16.3563C13.1713 16.4163 13.1251 16.4887 13.0958 16.5684L11.1133 21.9473C11.1 21.9831 11.076 22.0141 11.0446 22.0359C11.0132 22.0578 10.9758 22.0695 10.9376 22.0695C10.8993 22.0695 10.8619 22.0578 10.8305 22.0359C10.7991 22.0141 10.7751 21.9831 10.7618 21.9473L8.77935 16.5684C8.75005 16.4887 8.70378 16.4163 8.64375 16.3563C8.58373 16.2963 8.51137 16.25 8.4317 16.2207L3.05279 14.2383C3.01691 14.225 2.98596 14.201 2.96411 14.1696C2.94225 14.1381 2.93054 14.1008 2.93054 14.0625C2.93054 14.0242 2.94225 13.9869 2.96411 13.9554C2.98596 13.924 3.01691 13.9 3.05279 13.8867L8.4317 11.9043C8.51137 11.875 8.58373 11.8287 8.64375 11.7687C8.70378 11.7087 8.75005 11.6363 8.77935 11.5566L10.7618 6.17773C10.7751 6.14185 10.7991 6.1109 10.8305 6.08905C10.8619 6.0672 10.8993 6.05548 10.9376 6.05548C10.9758 6.05548 11.0132 6.0672 11.0446 6.08905C11.076 6.1109 11.1 6.14185 11.1133 6.17773L13.0958 11.5566C13.1251 11.6363 13.1713 11.7087 13.2314 11.7687C13.2914 11.8287 13.3637 11.875 13.4434 11.9043L18.8223 13.8867C18.8582 13.9 18.8892 13.924 18.911 13.9554C18.9329 13.9869 18.9446 14.0242 18.9446 14.0625C18.9446 14.1008 18.9329 14.1381 18.911 14.1696C18.8892 14.201 18.8582 14.225 18.8223 14.2383ZM14.2579 3.90625C14.2579 3.75085 14.3196 3.60181 14.4295 3.49193C14.5394 3.38205 14.6884 3.32031 14.8438 3.32031H16.6016V1.5625C16.6016 1.4071 16.6634 1.25806 16.7732 1.14818C16.8831 1.0383 17.0322 0.976563 17.1876 0.976562C17.343 0.976562 17.492 1.0383 17.6019 1.14818C17.7118 1.25806 17.7735 1.4071 17.7735 1.5625V3.32031H19.5313C19.6867 3.32031 19.8357 3.38205 19.9456 3.49193C20.0555 3.60181 20.1172 3.75085 20.1172 3.90625C20.1172 4.06165 20.0555 4.21069 19.9456 4.32057C19.8357 4.43045 19.6867 4.49219 19.5313 4.49219H17.7735V6.25C17.7735 6.4054 17.7118 6.55444 17.6019 6.66432C17.492 6.7742 17.343 6.83594 17.1876 6.83594C17.0322 6.83594 16.8831 6.7742 16.7732 6.66432C16.6634 6.55444 16.6016 6.4054 16.6016 6.25V4.49219H14.8438C14.6884 4.49219 14.5394 4.43045 14.4295 4.32057C14.3196 4.21069 14.2579 4.06165 14.2579 3.90625ZM24.0235 8.59375C24.0235 8.74915 23.9618 8.89819 23.8519 9.00807C23.742 9.11795 23.593 9.17969 23.4376 9.17969H22.461V10.1562C22.461 10.3117 22.3993 10.4607 22.2894 10.5706C22.1795 10.6805 22.0305 10.7422 21.8751 10.7422C21.7197 10.7422 21.5706 10.6805 21.4607 10.5706C21.3509 10.4607 21.2891 10.3117 21.2891 10.1562V9.17969H20.3126C20.1572 9.17969 20.0081 9.11795 19.8982 9.00807C19.7884 8.89819 19.7266 8.74915 19.7266 8.59375C19.7266 8.43835 19.7884 8.28931 19.8982 8.17943C20.0081 8.06955 20.1572 8.00781 20.3126 8.00781H21.2891V7.03125C21.2891 6.87585 21.3509 6.72681 21.4607 6.61693C21.5706 6.50705 21.7197 6.44531 21.8751 6.44531C22.0305 6.44531 22.1795 6.50705 22.2894 6.61693C22.3993 6.72681 22.461 6.87585 22.461 7.03125V8.00781H23.4376C23.593 8.00781 23.742 8.06955 23.8519 8.17943C23.9618 8.28931 24.0235 8.43835 24.0235 8.59375Z" fill="white"/>
</g>
</svg>
