<svg width="37" height="37" viewBox="0 0 37 37" fill="none" xmlns="http://www.w3.org/2000/svg">
<path id="Vector" d="M29.0302 19.6268L20.5118 16.4882L17.3732 7.96985C17.2133 7.53644 16.9244 7.16246 16.5455 6.89832C16.1665 6.63417 15.7157 6.49255 15.2537 6.49255C14.7918 6.49255 14.3409 6.63417 13.962 6.89832C13.583 7.16246 13.2941 7.53644 13.1343 7.96985L9.99567 16.4882L1.4773 19.6268C1.04389 19.7867 0.669915 20.0756 0.405766 20.4545C0.141618 20.8335 0 21.2843 0 21.7463C0 22.2082 0.141618 22.6591 0.405766 23.038C0.669915 23.417 1.04389 23.7059 1.4773 23.8657L9.99567 27.0043L13.1343 35.5227C13.2941 35.9561 13.583 36.3301 13.962 36.5942C14.3409 36.8584 14.7918 37 15.2537 37C15.7157 37 16.1665 36.8584 16.5455 36.5942C16.9244 36.3301 17.2133 35.9561 17.3732 35.5227L20.5118 27.0043L29.0302 23.8657C29.4636 23.7059 29.8375 23.417 30.1017 23.038C30.3658 22.6591 30.5075 22.2082 30.5075 21.7463C30.5075 21.2843 30.3658 20.8335 30.1017 20.4545C29.8375 20.0756 29.4636 19.7867 29.0302 19.6268ZM28.3567 22.0384L19.418 25.3328C19.2856 25.3815 19.1653 25.4584 19.0656 25.5581C18.9658 25.6579 18.8889 25.7781 18.8402 25.9105L15.5458 34.8492C15.5237 34.9088 15.4839 34.9603 15.4316 34.9966C15.3794 35.0329 15.3173 35.0524 15.2537 35.0524C15.1901 35.0524 15.128 35.0329 15.0758 34.9966C15.0236 34.9603 14.9837 34.9088 14.9616 34.8492L11.6672 25.9105C11.6185 25.7781 11.5416 25.6579 11.4419 25.5581C11.3421 25.4584 11.2219 25.3815 11.0895 25.3328L2.15078 22.0384C2.09115 22.0163 2.03972 21.9764 2.00341 21.9242C1.96709 21.872 1.94762 21.8099 1.94762 21.7463C1.94762 21.6827 1.96709 21.6206 2.00341 21.5684C2.03972 21.5161 2.09115 21.4763 2.15078 21.4542L11.0895 18.1598C11.2219 18.1111 11.3421 18.0342 11.4419 17.9344C11.5416 17.8347 11.6185 17.7144 11.6672 17.582L14.9616 8.64333C14.9837 8.5837 15.0236 8.53227 15.0758 8.49596C15.128 8.45964 15.1901 8.44017 15.2537 8.44017C15.3173 8.44017 15.3794 8.45964 15.4316 8.49596C15.4839 8.53227 15.5237 8.5837 15.5458 8.64333L18.8402 17.582C18.8889 17.7144 18.9658 17.8347 19.0656 17.9344C19.1653 18.0342 19.2856 18.1111 19.418 18.1598L28.3567 21.4542C28.4163 21.4763 28.4677 21.5161 28.504 21.5684C28.5404 21.6206 28.5598 21.6827 28.5598 21.7463C28.5598 21.8099 28.5404 21.872 28.504 21.9242C28.4677 21.9764 28.4163 22.0163 28.3567 22.0384ZM20.7714 4.86857C20.7714 4.61032 20.874 4.36266 21.0566 4.18005C21.2392 3.99744 21.4869 3.89486 21.7451 3.89486H24.6663V0.973714C24.6663 0.715469 24.7689 0.467801 24.9515 0.285194C25.1341 0.102587 25.3818 0 25.64 0C25.8983 0 26.1459 0.102587 26.3285 0.285194C26.5111 0.467801 26.6137 0.715469 26.6137 0.973714V3.89486H29.5349C29.7931 3.89486 30.0408 3.99744 30.2234 4.18005C30.406 4.36266 30.5086 4.61032 30.5086 4.86857C30.5086 5.12681 30.406 5.37448 30.2234 5.55709C30.0408 5.7397 29.7931 5.84228 29.5349 5.84228H26.6137V8.76342C26.6137 9.02167 26.5111 9.26934 26.3285 9.45194C26.1459 9.63455 25.8983 9.73714 25.64 9.73714C25.3818 9.73714 25.1341 9.63455 24.9515 9.45194C24.7689 9.26934 24.6663 9.02167 24.6663 8.76342V5.84228H21.7451C21.4869 5.84228 21.2392 5.7397 21.0566 5.55709C20.874 5.37448 20.7714 5.12681 20.7714 4.86857ZM37 12.6583C37 12.9165 36.8974 13.1642 36.7148 13.3468C36.5322 13.5294 36.2845 13.632 36.0263 13.632H34.4034V15.2548C34.4034 15.5131 34.3008 15.7608 34.1182 15.9434C33.9356 16.126 33.688 16.2286 33.4297 16.2286C33.1715 16.2286 32.9238 16.126 32.7412 15.9434C32.5586 15.7608 32.456 15.5131 32.456 15.2548V13.632H30.8331C30.5749 13.632 30.3272 13.5294 30.1446 13.3468C29.962 13.1642 29.8594 12.9165 29.8594 12.6583C29.8594 12.4 29.962 12.1524 30.1446 11.9698C30.3272 11.7872 30.5749 11.6846 30.8331 11.6846H32.456V10.0617C32.456 9.80346 32.5586 9.5558 32.7412 9.37319C32.9238 9.19058 33.1715 9.08799 33.4297 9.08799C33.688 9.08799 33.9356 9.19058 34.1182 9.37319C34.3008 9.5558 34.4034 9.80346 34.4034 10.0617V11.6846H36.0263C36.2845 11.6846 36.5322 11.7872 36.7148 11.9698C36.8974 12.1524 37 12.4 37 12.6583Z" fill="url(#paint0_linear_14_6389)"/>
<defs>
<linearGradient id="paint0_linear_14_6389" x1="0" y1="18.5" x2="37" y2="18.5" gradientUnits="userSpaceOnUse">
<stop stop-color="#D838C9"/>
<stop offset="1" stop-color="#482CBB"/>
</linearGradient>
</defs>
</svg>
