<svg width="76" height="71" viewBox="0 0 76 71" fill="none" xmlns="http://www.w3.org/2000/svg">
<g id="logo" clip-path="url(#clip0_14_6277)">
<path id="Vector" d="M70.721 42.08L75.9985 45.1288V16.4911L70.721 13.4414V42.08ZM0 16.4914V45.1309L5.27784 42.0803V13.442L0 16.4914ZM23.2251 67.7181L28.503 70.7669L41.0694 63.5068L35.7915 60.458L23.2251 67.7181Z" fill="#83005E"/>
<path id="Vector_2" d="M30.6132 63.4527L35.8907 66.5022L41.0694 63.5098L35.7916 60.4609L30.6132 63.4527Z" fill="#83005E"/>
<path id="Vector_3" d="M50.1374 58.8758V52.7775L27.4128 39.6484L25.8613 40.5444L25.8637 40.5462V44.8519L50.1374 58.8758ZM25.8637 58.2683L47.5 70.7687L52.7787 67.7199L25.8637 52.1697V58.2683Z" fill="#F600B5"/>
<path id="Vector_4" d="M57.8051 20.9064L63.0823 23.9553L75.9988 16.4934L70.7197 13.4452L57.8051 20.9064ZM40.6689 36.9052L35.391 33.8564L23.2227 40.8869L28.5003 43.9357L40.6689 36.9052ZM64.3901 9.78677L59.111 6.73763L46.1964 14.1998L51.4742 17.2492L64.3901 9.78677ZM29.0605 30.1985L23.7826 27.1497L11.614 34.1799L16.8919 37.2287L29.0605 30.1985ZM34.588 7.49308L39.8658 10.5419L52.7817 3.08009L47.5026 0.03125L34.588 7.49308ZM0.00561523 27.4729L5.28346 30.5217L17.4518 23.4919L12.1742 20.4424L0.00561523 27.4729Z" fill="#FF8EDF"/>
<path id="Vector_5" d="M70.7209 30.5182V57.3517L75.9985 54.3023V27.4693L70.7209 30.5182ZM64.3874 61.0105V34.1772L59.1096 37.226V64.0599L64.3874 61.0105ZM47.4982 43.9342V70.7678L52.7763 67.7186V40.8848L47.4982 43.9342ZM23.2251 67.7186L28.5029 70.7675V43.9348L23.2251 40.8851V67.7186ZM16.8919 37.2263V64.0596L11.614 61.0107V34.1772L16.8919 37.2263ZM0.00292969 54.3023L5.28048 57.3511V30.5182L0.00292969 27.4688V54.3023Z" fill="#BF0089"/>
<path id="Vector_6" d="M30.6102 36.6172L35.8881 39.6661L40.6693 36.9039L35.3914 33.8551L30.6102 36.6172ZM7.39343 23.2036L12.6713 26.2524L17.4519 23.4902L12.1746 20.4414L7.39343 23.2036ZM19.0018 29.9102L24.2797 32.9591L29.0603 30.1972L23.783 27.1484L19.0018 29.9102Z" fill="#F600B5"/>
<path id="Vector_7" d="M28.5006 0.0273438L23.2222 3.07618L70.7201 30.5181L75.9982 27.4693L28.5006 0.0273438ZM16.8889 6.7358L11.6114 9.78464L59.1087 37.2266L64.3874 34.1777L16.8889 6.7358ZM0 16.4928L47.4973 43.9348L52.7761 40.8859L5.27784 13.444L0 16.4928Z" fill="#FFBEFE"/>
</g>
<defs>
<clipPath id="clip0_14_6277">
<rect width="76" height="71" fill="white"/>
</clipPath>
</defs>
</svg>
