<svg width="165" height="161" viewBox="0 0 165 161" fill="none" xmlns="http://www.w3.org/2000/svg">
<g id="logos:adobe-illustrator">
<path id="Vector" d="M137.607 0H27.3926C12.2641 0 0 12.254 0 27.37V133.372C0 148.488 12.2641 160.742 27.3926 160.742H137.607C152.736 160.742 165 148.488 165 133.372V27.37C165 12.254 152.736 0 137.607 0Z" fill="#330000"/>
<path id="Vector_2" d="M79.9569 96.4631H54.3883L49.1857 112.61C49.1149 112.905 48.9435 113.165 48.701 113.347C48.4585 113.529 48.1601 113.62 47.8573 113.606H34.9067C34.1685 113.606 33.9103 113.2 34.132 112.389L56.2697 48.6854C56.491 48.0221 56.7123 47.2665 56.9336 46.4185C57.2236 44.9425 57.3719 43.4432 57.3764 41.9395C57.3613 41.8343 57.3709 41.7271 57.4045 41.6263C57.4381 41.5254 57.4948 41.4338 57.5699 41.3587C57.6451 41.2835 57.7367 41.2268 57.8376 41.1932C57.9385 41.1595 58.0458 41.1498 58.1511 41.1648H75.7507C76.2663 41.1648 76.5615 41.3494 76.6363 41.7186L101.762 112.499C101.983 113.238 101.762 113.607 101.098 113.606H86.7083C86.4613 113.633 86.2129 113.569 86.0093 113.427C85.8057 113.284 85.6609 113.073 85.6017 112.832L79.9569 96.4631ZM58.3728 82.5282H75.8615L75.6121 81.7059L75.2118 80.4037L74.9263 79.4892L74.4706 78.0492L73.5019 75.0179L72.6498 72.3305L70.4371 65.3302C69.8864 63.5901 69.3578 61.843 68.8516 60.0894L68.4468 58.6661L67.9737 56.9833L67.2519 54.3751L67.1165 53.8838H67.0063C66.4523 56.5384 65.7779 59.1665 64.9851 61.7599L63.3428 67.0381L62.4392 69.9541L61.5271 72.9062C61.3626 73.4395 61.1982 73.9667 61.0341 74.4879L60.5442 76.0322L60.057 77.5405L59.5723 79.0114L59.0902 80.4456C58.9303 80.9178 58.7707 81.3836 58.6113 81.843L58.3728 82.5282ZM116.704 52.8881C115.575 52.9333 114.449 52.7399 113.4 52.3206C112.351 51.9014 111.402 51.2657 110.616 50.4551C109.832 49.6089 109.223 48.6165 108.825 47.5346C108.426 46.4528 108.244 45.303 108.291 44.151C108.251 43.0105 108.452 41.8745 108.881 40.8169C109.31 39.7594 109.958 38.8042 110.782 38.0137C112.37 36.4897 114.486 35.6369 116.689 35.6328L116.925 35.6354C119.581 35.6354 121.666 36.4279 123.179 38.013C123.943 38.8369 124.536 39.8031 124.925 40.8563C125.315 41.9095 125.492 43.0291 125.448 44.151C125.495 45.3076 125.308 46.4619 124.899 47.545C124.491 48.6282 123.868 49.6181 123.068 50.4558C122.261 51.2504 121.303 51.8756 120.251 52.2948C119.199 52.714 118.073 52.9186 116.94 52.8965L116.704 52.8881ZM109.066 112.499V59.6347C109.065 58.9709 109.361 58.6391 109.951 58.6391H123.566C124.156 58.6391 124.452 58.9709 124.452 59.6347V112.499C124.452 113.238 124.157 113.607 123.566 113.606H110.062C109.433 113.606 109.102 113.275 109.069 112.613L109.066 112.499Z" fill="#FF9A00"/>
</g>
</svg>
