<svg width="166" height="162" viewBox="0 0 166 162" fill="none" xmlns="http://www.w3.org/2000/svg">
<g id="logos:adobe-after-effects">
<path id="Vector" d="M138.441 0H27.5586C12.3384 0 0 12.3301 0 27.54V134.201C0 149.411 12.3384 161.741 27.5586 161.741H138.441C153.662 161.741 166 149.411 166 134.201V27.54C166 12.3301 153.662 0 138.441 0Z" fill="#00005B"/>
<path id="Vector_2" d="M66.6872 96.7684H40.963L35.7288 113.047C35.6617 113.326 35.5047 113.575 35.282 113.756C35.0593 113.937 34.7832 114.04 34.4962 114.049L21.364 114.049C20.6205 114.049 20.3607 113.64 20.5846 112.824L42.8565 48.9901L43.0789 48.3194L43.1528 48.09L43.3019 47.6105C43.3759 47.3629 43.4498 47.1005 43.5244 46.816C43.8162 45.3315 43.9653 43.8223 43.9698 42.3092C43.9548 42.2034 43.9646 42.0956 43.9984 41.9942C44.0323 41.8928 44.0893 41.8007 44.1649 41.7252C44.2405 41.6496 44.3326 41.5927 44.4341 41.5589C44.5355 41.525 44.6434 41.5153 44.7493 41.5303H62.4555C62.9742 41.5303 63.2712 41.7158 63.3464 42.0869L88.6245 112.936C88.8471 113.678 88.6245 114.049 87.9566 114.049H73.4796C73.231 114.076 72.9811 114.012 72.7763 113.868C72.5715 113.725 72.4257 113.512 72.3662 113.27L66.6872 96.7684ZM44.9723 83.0431H62.567L62.3161 82.2156L61.9134 80.9054L61.324 79.0288L60.1924 75.4861L59.1147 72.0815L57.1098 65.7383C56.5558 63.9873 56.0241 62.2293 55.5146 60.4649L54.9453 58.4586L54.3306 56.26L53.769 54.2207H53.6575C53.1001 56.8918 52.4216 59.5362 51.624 62.1458L50.8718 64.5583L49.0627 70.3903L48.1458 73.3613C47.9802 73.8979 47.8148 74.4284 47.6497 74.9528L47.1569 76.5067L46.6667 78.0244L46.1791 79.5044L45.694 80.9475C45.4524 81.6603 45.2118 82.3588 44.9723 83.0431ZM129.605 90.4329H107.668C107.936 92.6019 108.657 94.6905 109.784 96.5636C111.029 98.4188 112.79 99.8694 114.85 100.737C117.642 101.945 120.661 102.536 123.703 102.471C126.116 102.424 128.52 102.16 130.886 101.683C133.002 101.398 135.075 100.858 137.061 100.074C137.432 99.7786 137.618 99.9639 137.618 100.63V111.203C137.637 111.491 137.579 111.779 137.451 112.037C137.323 112.239 137.152 112.41 136.95 112.538C134.747 113.513 132.428 114.203 130.051 114.592C126.82 115.198 123.537 115.478 120.251 115.426C115.144 115.426 110.839 114.661 107.336 113.129L106.999 112.978C103.631 111.496 100.657 109.248 98.3134 106.413C96.1243 103.741 94.4957 100.657 93.5247 97.3432C92.5639 94.0723 92.0767 90.6808 92.0781 87.272C92.0675 83.5497 92.6501 79.8495 93.8042 76.3104C94.9154 72.8583 96.6724 69.6485 98.982 66.8515C101.261 64.0877 104.11 61.848 107.334 60.2854C110.6 58.6913 114.461 58.1191 118.915 58.1191C122.609 58.0267 126.278 58.7486 129.661 60.2335C132.506 61.4457 135.01 63.3357 136.955 65.7383C138.78 68.0905 140.175 70.7464 141.075 73.5836C141.952 76.3177 142.403 79.1703 142.412 82.0413C142.412 83.6743 142.356 85.1582 142.245 86.4931L142.146 87.6361L142.042 88.7209L141.981 89.2704L141.966 89.3864C141.937 89.6316 141.819 89.8578 141.635 90.0219C141.45 90.186 141.212 90.2767 140.964 90.2767L140.659 90.2832L140.278 90.3027L139.982 90.324L139.289 90.383L138.681 90.4433C138.516 90.4606 138.344 90.4768 138.166 90.4919L137.614 90.5353L137.025 90.5742L136.399 90.6066L135.736 90.6344L135.39 90.6461L134.673 90.6655C133.963 90.683 133.235 90.639 132.489 90.5845L131.357 90.5016C130.774 90.459 130.189 90.4361 129.605 90.4329ZM107.668 80.2949H122.833L124.124 80.2865L125.002 80.2742L125.571 80.2613L126.209 80.2392C126.78 80.1822 127.332 79.9996 127.824 79.7046V79.0372C127.802 78.1668 127.652 77.3044 127.379 76.4776C126.778 74.579 125.57 72.93 123.941 71.7839C122.311 70.6378 120.35 70.058 118.359 70.1337C116.485 70.0206 114.618 70.4549 112.987 71.3837C111.356 72.3124 110.03 73.6955 109.172 75.3643C108.408 76.9165 107.901 78.5811 107.668 80.2949Z" fill="#9999FF"/>
</g>
</svg>
