<svg width="166" height="162" viewBox="0 0 166 162" fill="none" xmlns="http://www.w3.org/2000/svg">
<g id="logos:adobe-photoshop">
<path id="Vector" d="M138.441 0H27.5586C12.3384 0 0 12.3301 0 27.54V134.201C0 149.411 12.3384 161.741 27.5586 161.741H138.441C153.662 161.741 166 149.411 166 134.201V27.54C166 12.3301 153.662 0 138.441 0Z" fill="#001E36"/>
<path id="Vector_2" d="M37.3784 113.422V42.3118C37.3784 41.793 37.6013 41.5334 38.047 41.5329L38.7518 41.531L39.9566 41.518L41.6309 41.485L47.2399 41.3664L53.2541 41.2549C55.3693 41.2182 57.4664 41.1997 59.5453 41.1992C65.1867 41.1992 69.938 41.904 73.7992 43.3136C77.2827 44.4903 80.4595 46.4291 83.0978 48.9888C85.3347 51.2072 87.0634 53.8841 88.1647 56.8348C89.206 59.7063 89.7339 62.7385 89.7242 65.7928C89.7242 71.7289 88.3506 76.6254 85.6034 80.4823C82.9168 84.2451 79.1694 87.1227 74.8393 88.7482L74.4677 88.8842C69.9462 90.5697 64.939 91.1788 59.4473 91.217L58.594 91.2196L57.3276 91.2132L56.6889 91.2041L55.9769 91.1872L55.5476 91.1704L55.287 91.1568L54.6457 91.1335L53.8617 91.1173L52.6815 91.1088L52.4189 91.1082V113.311C52.4384 113.447 52.426 113.585 52.3825 113.716C52.339 113.846 52.2657 113.965 52.1685 114.062C52.0712 114.159 51.9526 114.233 51.822 114.276C51.6915 114.319 51.5526 114.332 51.4164 114.312H38.1585C37.638 114.313 37.378 114.016 37.3784 113.422ZM52.4196 54.8869V78.0801C53.3836 78.1549 54.2741 78.192 55.0911 78.1916H58.7665C61.3004 78.1829 63.8196 77.8059 66.2449 77.0725L66.7286 76.9215C68.9353 76.2671 70.9069 74.9921 72.4083 73.2487C73.8037 71.604 74.5265 69.3378 74.5767 66.4498L74.5799 66.1265C74.6383 63.9738 74.078 61.8497 72.9647 60.0061C71.795 58.2227 70.1036 56.8431 68.1208 56.0553C65.5324 55.0494 62.7673 54.5764 59.9914 54.6647L58.5791 54.6685L57.6881 54.6763L56.838 54.6873L55.6384 54.7107L54.763 54.7353L54.3085 54.7521L53.7009 54.7807L53.1834 54.8124L52.8884 54.8357L52.6336 54.8604L52.5214 54.8733L52.4196 54.8869ZM132.78 73.863C130.838 72.8657 128.777 72.1163 126.648 71.6325L126.155 71.5263C123.812 70.9891 121.42 70.6931 119.016 70.643L118.416 70.6359C117.007 70.5977 115.6 70.7664 114.24 71.1368C113.374 71.3299 112.605 71.8225 112.067 72.5274C111.704 73.0918 111.511 73.7486 111.511 74.4196C111.531 75.0703 111.766 75.696 112.179 76.1996C112.77 76.8903 113.481 77.4691 114.277 77.9084L114.518 78.0361C116.106 78.8903 117.742 79.6519 119.417 80.317C123.154 81.568 126.725 83.2683 130.052 85.3805C132.318 86.8097 134.193 88.7792 135.509 91.1121C136.615 93.3208 137.169 95.7643 137.124 98.2336C137.19 101.495 136.257 104.698 134.451 107.415C132.517 110.173 129.83 112.316 126.711 113.591C123.445 115.025 119.434 115.766 114.678 115.814L114.184 115.817C111.236 115.846 108.292 115.589 105.394 115.047L104.774 114.927C102.334 114.48 99.9586 113.732 97.7026 112.701C97.4757 112.584 97.2839 112.409 97.147 112.194C97.01 111.979 96.9328 111.731 96.9231 111.476V99.3469C96.9098 99.2291 96.9287 99.11 96.9778 99.0021C97.0269 98.8943 97.1044 98.8018 97.202 98.7345C97.2975 98.6802 97.4073 98.6565 97.5168 98.6664C97.6262 98.6764 97.7299 98.7196 97.8141 98.7902C100.478 100.36 103.371 101.505 106.388 102.184C109.048 102.851 111.776 103.206 114.518 103.242C117.115 103.242 119.027 102.908 120.253 102.24C120.806 101.987 121.274 101.579 121.6 101.065C121.926 100.552 122.096 99.9549 122.09 99.3469C122.09 98.3835 121.534 97.4562 120.42 96.565C119.953 96.1917 119.284 95.7857 118.412 95.3468L117.995 95.142L117.55 94.9327L117.316 94.8264L116.828 94.61L116.573 94.4998L116.041 94.2769L115.764 94.1635L115.19 93.9335L114.891 93.8168L114.273 93.579L113.627 93.3373C110.13 92.1221 106.814 90.4374 103.771 88.3296C101.594 86.8169 99.8022 84.8161 98.5378 82.4872C97.4431 80.2942 96.8894 77.8712 96.9231 75.4207C96.9162 72.4763 97.7256 69.5874 99.2614 67.0745C101.012 64.3075 103.526 62.1043 106.5 60.7319C109.766 59.1007 113.849 58.2844 118.749 58.2831C121.619 58.26 124.486 58.4648 127.324 58.8955C129.378 59.1562 131.387 59.6991 133.293 60.509C133.6 60.5971 133.847 60.8232 133.961 61.1213C134.037 61.3928 134.074 61.6734 134.073 61.956V73.1955C134.089 73.4612 133.961 73.7159 133.739 73.863C133.59 73.9369 133.426 73.9754 133.26 73.9754C133.093 73.9754 132.929 73.9369 132.78 73.863Z" fill="#31A8FF"/>
</g>
</svg>
