<svg width="172" height="172" viewBox="0 0 172 172" fill="none" xmlns="http://www.w3.org/2000/svg">
<g id="Group">
<path id="Vector" d="M131.688 0H40.3125C18.0485 0 0 18.0485 0 40.3125V131.688C0 153.951 18.0485 172 40.3125 172H131.688C153.951 172 172 153.951 172 131.688V40.3125C172 18.0485 153.951 0 131.688 0Z" fill="#242938"/>
<g id="Clip path group">
<mask id="mask0_42_841" style="mask-type:luminance" maskUnits="userSpaceOnUse" x="40" y="18" width="91" height="136">
<g id="skillIconsFigmaDark0">
<path id="Vector_2" d="M40.9844 18.8125H130.586V153.188H40.9844V18.8125Z" fill="white"/>
</g>
</mask>
<g mask="url(#mask0_42_841)">
<g id="Group_2">
<path id="Vector_3" d="M63.3894 153.186C75.7519 153.186 85.7851 143.153 85.7851 130.791V108.395H63.3894C51.0269 108.395 40.9932 118.428 40.9932 130.791C40.9932 143.153 51.0269 153.186 63.3894 153.186Z" fill="#0ACF83"/>
<path id="Vector_4" d="M40.9932 86.0011C40.9932 73.6386 51.0269 63.6055 63.3894 63.6055H85.7851V108.397H63.3894C51.0269 108.397 40.9932 98.3636 40.9932 86.0011Z" fill="#A259FF"/>
<path id="Vector_5" d="M40.9932 41.2081C40.9932 28.8456 51.0269 18.8125 63.3894 18.8125H85.7851V63.6044H63.3894C51.0269 63.6044 40.9932 53.5706 40.9932 41.2081Z" fill="#F24E1E"/>
<path id="Vector_6" d="M85.7847 18.8125H108.18C120.543 18.8125 130.577 28.8456 130.577 41.2081C130.577 53.5706 120.543 63.6044 108.18 63.6044H85.7847V18.8125Z" fill="#FF7262"/>
<path id="Vector_7" d="M130.577 86.0011C130.577 98.3636 120.543 108.397 108.18 108.397C95.8178 108.397 85.7847 98.3636 85.7847 86.0011C85.7847 73.6386 95.8178 63.6055 108.18 63.6055C120.543 63.6055 130.577 73.6386 130.577 86.0011Z" fill="#1ABCFE"/>
</g>
</g>
</g>
</g>
</svg>
